<?xml version="1.0" standalone="no"?>
<!DOCTYPE svg PUBLIC "-//W3C//DTD SVG 20010904//EN"
 "http://www.w3.org/TR/2001/REC-SVG-20010904/DTD/svg10.dtd">
<svg version="1.0" xmlns="http://www.w3.org/2000/svg"
 width="1024.000000pt" height="1024.000000pt" viewBox="0 0 1024.000000 1024.000000"
 preserveAspectRatio="xMidYMid meet">
<metadata>
Created by potrace 1.11, written by Peter Selinger 2001-2013
</metadata>
<g transform="translate(0.000000,1024.000000) scale(0.100000,-0.100000)"
fill="#000000" stroke="none">
<path d="M5318 7585 c-2 -1 -30 -5 -63 -8 -84 -6 -143 -26 -166 -55 -36 -46
-26 -73 84 -230 82 -117 109 -178 102 -234 -5 -38 -36 -68 -71 -68 -37 0 -141
51 -278 134 -214 132 -418 211 -570 220 -53 3 -114 -15 -117 -35 -8 -56 11
-119 56 -185 109 -160 177 -391 139 -475 -29 -65 -72 -72 -191 -34 -178 59
-356 65 -538 18 -33 -8 -67 -16 -75 -18 -47 -10 -244 -86 -367 -141 -211 -94
-273 -136 -273 -185 0 -33 28 -53 123 -85 76 -26 208 -54 397 -84 105 -17 221
-74 291 -143 94 -93 111 -163 49 -207 -26 -18 -111 -59 -128 -60 -68 -5 -163
-54 -363 -186 -91 -60 -187 -120 -215 -134 -27 -13 -74 -40 -104 -60 -105 -69
-165 -98 -258 -125 -167 -48 -248 -89 -236 -119 9 -23 47 -38 242 -93 157 -44
175 -47 287 -48 66 0 152 2 190 4 125 7 169 -10 266 -102 37 -35 83 -77 102
-94 19 -17 42 -41 51 -55 14 -21 14 -27 0 -53 -8 -17 -30 -44 -47 -61 -18 -17
-75 -94 -127 -169 -131 -190 -182 -249 -280 -322 -188 -139 -196 -159 -98
-257 133 -132 238 -170 469 -171 l125 0 75 38 c266 138 296 150 319 122 16
-19 0 -65 -72 -209 -92 -185 -110 -239 -114 -351 -6 -182 40 -369 108 -437 98
-98 245 -99 278 -2 6 17 8 75 6 135 -4 89 -2 113 17 169 39 115 128 200 209
200 46 0 57 -16 148 -206 86 -177 133 -224 330 -322 80 -40 169 -88 198 -106
29 -19 63 -36 77 -38 36 -7 68 13 78 49 10 33 8 40 -42 174 -11 31 -25 83 -30
115 -14 86 -6 288 14 353 19 61 62 112 91 106 10 -2 22 -4 26 -4 4 -1 32 -23
62 -50 100 -87 227 -141 390 -165 138 -21 258 -13 431 27 83 20 175 38 205 42
30 4 69 9 85 11 17 3 50 7 75 10 68 6 104 15 112 27 12 19 -18 61 -94 133 -87
82 -134 112 -270 165 -201 80 -277 128 -347 222 -54 71 -61 123 -25 166 32 39
62 55 139 75 75 19 104 24 185 31 180 15 226 28 429 126 228 110 272 123 421
121 189 -2 270 22 270 80 0 26 -77 100 -145 139 -94 54 -155 76 -364 130 -108
28 -228 64 -268 81 -144 59 -249 146 -276 228 -34 102 0 176 183 395 41 50 97
120 124 155 108 143 227 215 411 250 160 30 217 49 254 81 26 22 32 34 27 52
-14 56 -191 137 -608 277 -226 75 -277 127 -227 224 65 128 140 213 259 298
132 93 160 146 95 177 -32 16 -203 20 -340 8 -44 -4 -109 -9 -145 -12 -68 -5
-112 -11 -170 -21 -19 -3 -120 -35 -225 -71 -196 -66 -307 -95 -330 -87 -26
10 -33 50 -39 224 -5 128 -11 177 -33 265 -15 63 -62 166 -91 201 -36 42 -112
92 -159 103 -49 11 -120 20 -125 16z m214 -553 c26 -10 67 -71 79 -117 33
-120 7 -269 -108 -618 -84 -257 -91 -269 -158 -281 -96 -18 -169 96 -168 264
1 97 21 150 123 320 77 129 103 192 114 275 16 124 58 181 118 157z m-753
-167 c38 -44 53 -73 80 -154 19 -59 52 -215 66 -321 7 -50 27 -107 74 -218 40
-96 35 -108 -54 -117 -120 -13 -333 9 -362 38 -34 34 -16 219 44 442 19 72 43
173 53 225 31 153 44 167 99 105z m1611 -210 c18 -16 21 -27 16 -66 -15 -126
-155 -363 -310 -527 -109 -116 -291 -232 -366 -234 -25 -1 -40 6 -61 30 -28
31 -53 118 -45 157 2 11 6 37 10 58 16 86 167 322 275 427 137 135 407 222
481 155z m-2189 -232 c55 -25 80 -61 108 -163 47 -166 62 -198 142 -305 20
-27 40 -66 44 -85 13 -72 -55 -175 -107 -163 -85 18 -257 147 -467 348 -128
122 -121 115 -171 156 -57 46 -111 73 -177 89 -29 6 -53 16 -53 22 0 18 126
66 240 91 154 34 149 34 280 32 93 -1 124 -5 161 -22z m2419 -358 c98 -27 186
-70 205 -99 17 -25 17 -27 -1 -47 -11 -12 -41 -32 -68 -46 -57 -29 -152 -120
-227 -218 -30 -38 -59 -77 -66 -85 -70 -91 -168 -202 -201 -228 -22 -18 -62
-42 -87 -53 -45 -20 -49 -20 -90 -4 -80 30 -158 139 -182 255 -22 104 1 156
116 270 145 144 313 262 396 280 38 8 123 -3 205 -25z m-2660 -595 c190 -35
261 -122 232 -288 -14 -84 -84 -223 -123 -246 -30 -17 -30 -17 -67 11 -70 53
-97 69 -174 101 -119 50 -246 71 -452 75 -42 1 -71 7 -73 14 -6 17 75 111 152
176 155 130 339 187 505 157z m2234 -624 c106 -107 142 -126 371 -192 124 -36
225 -77 225 -91 -2 -45 -233 -147 -435 -193 -27 -7 -59 -14 -70 -16 -94 -22
-225 27 -322 121 -59 58 -71 90 -54 154 26 99 116 260 155 280 40 19 58 10
130 -63z m-1997 -308 c42 -39 99 -125 108 -161 9 -33 -18 -58 -165 -154 -79
-51 -141 -102 -200 -163 -151 -156 -349 -270 -419 -240 -51 21 -55 89 -11 177
33 65 125 166 250 273 87 75 138 128 212 225 79 103 149 116 225 43z m1447
-331 c44 -29 106 -102 173 -202 36 -55 88 -134 116 -175 74 -111 124 -166 197
-217 77 -54 130 -108 130 -134 0 -36 -69 -60 -220 -75 -189 -19 -293 -4 -367
52 -49 38 -73 96 -98 244 -8 45 -56 210 -95 324 -47 140 -39 188 36 204 44 9
93 1 128 -21z m-909 -87 c40 -44 19 -225 -40 -345 -24 -49 -101 -136 -220
-245 -33 -31 -90 -90 -128 -132 -74 -83 -114 -108 -161 -101 -71 11 -83 61
-40 169 29 73 100 211 120 235 8 8 14 20 14 26 0 28 181 256 270 340 77 74
148 94 185 53z m469 -32 c69 -35 106 -84 106 -140 0 -41 -42 -170 -117 -358
-28 -69 -65 -174 -83 -235 -38 -130 -64 -184 -88 -186 -106 -9 -155 48 -147
171 2 36 15 113 29 173 26 110 28 117 44 200 15 73 7 136 -22 193 -30 56 -37
96 -23 137 27 81 184 105 301 45z"/>
<path d="M1628 7245 c-2 -2 -30 -6 -62 -10 -87 -9 -230 -49 -325 -89 -71 -30
-202 -101 -236 -128 -5 -4 -44 -34 -85 -66 -181 -142 -367 -354 -424 -485 -60
-135 -87 -253 -91 -402 -4 -178 21 -288 92 -395 119 -179 357 -281 540 -231
93 25 345 223 339 265 -5 34 -27 37 -221 31 -188 -7 -190 -6 -225 17 -19 13
-46 44 -60 68 -20 38 -24 58 -24 125 0 92 5 113 34 160 62 100 220 181 330
168 105 -11 195 -118 285 -338 28 -68 24 -178 -9 -300 -5 -20 -17 -101 -20
-139 -6 -90 13 -147 129 -381 123 -248 182 -345 260 -426 113 -118 196 -140
430 -114 28 3 73 8 100 11 56 6 114 22 133 37 32 25 1 65 -119 154 -81 60
-154 137 -178 188 -56 119 -18 269 97 385 97 96 206 160 479 280 225 98 271
138 227 197 -20 26 -61 50 -186 108 -42 19 -130 74 -195 122 -195 144 -303
213 -403 260 -266 124 -308 151 -294 186 9 26 47 21 148 -19 183 -74 329 -152
446 -240 144 -108 258 -184 277 -184 10 0 12 9 8 33 -3 17 -7 46 -10 62 -13
73 -6 201 14 266 51 163 216 297 499 404 41 15 94 39 118 52 143 80 60 151
-195 168 -44 3 -155 -19 -176 -34 -21 -16 -135 -52 -177 -56 -34 -3 -60 3
-123 31 -148 65 -384 156 -442 169 -10 2 -61 16 -113 29 -101 26 -113 29 -230
47 -67 10 -354 21 -362 14z"/>
<path d="M7911 7019 c-91 -18 -343 -112 -498 -186 -332 -157 -343 -292 -36
-439 43 -21 109 -61 146 -91 38 -29 87 -58 110 -64 53 -15 135 -2 267 41 52
17 103 33 113 35 10 2 27 7 38 10 31 10 58 -3 52 -25 -5 -20 -24 -30 -224
-123 -63 -29 -102 -54 -116 -73 -54 -78 -85 -241 -53 -279 21 -25 79 -38 144
-31 72 8 138 25 287 71 130 41 191 44 327 15 315 -66 618 -237 654 -367 12
-43 0 -77 -41 -117 -31 -30 -43 -36 -64 -31 -28 8 -64 40 -106 95 -14 19 -42
50 -61 68 -30 28 -40 32 -70 27 -80 -14 -127 -67 -116 -129 10 -53 83 -151
163 -219 34 -30 124 -57 188 -58 132 -1 220 34 309 124 158 159 185 374 70
554 -42 66 -95 104 -269 194 -77 40 -169 90 -205 112 -77 46 -158 127 -184
182 -126 271 -229 450 -305 531 -138 149 -325 211 -520 173z"/>
<path d="M7958 5675 c-2 -2 -21 -5 -43 -8 -69 -10 -204 -68 -243 -104 -7 -7
-17 -13 -21 -13 -21 0 -183 -176 -239 -259 -89 -132 -91 -126 73 -281 89 -84
148 -184 174 -295 16 -71 19 -86 26 -157 9 -94 24 -171 51 -265 64 -221 154
-314 459 -478 89 -48 93 -51 73 -72 -36 -35 -153 -11 -298 62 -86 43 -206 126
-310 214 -132 112 -162 125 -275 118 -117 -8 -148 -13 -215 -39 -149 -59 -249
-149 -281 -256 -16 -55 -1 -109 52 -179 21 -28 48 -70 60 -93 l22 -41 -27 -80
c-31 -96 -32 -129 -7 -160 17 -21 27 -24 78 -23 32 1 117 16 188 34 94 23 142
30 172 25 23 -3 95 -34 160 -67 415 -214 490 -238 758 -244 309 -6 563 70 835
251 280 187 505 480 620 810 61 175 40 352 -59 499 -124 184 -398 286 -591
221 -77 -26 -157 -108 -187 -193 -26 -73 -21 -80 47 -62 80 21 189 37 236 33
98 -7 195 -74 236 -163 31 -68 30 -178 -4 -252 -31 -68 -97 -142 -153 -171
-22 -12 -42 -22 -45 -22 -3 -1 -25 -7 -50 -14 -111 -32 -254 9 -327 94 -79 91
-141 273 -167 485 -8 69 -25 209 -31 265 -25 226 -42 296 -98 418 -125 271
-348 448 -579 461 -37 2 -69 2 -70 1z"/>
<path d="M1164 5069 c-108 -19 -242 -126 -296 -237 -29 -59 -32 -74 -32 -151
1 -69 6 -98 27 -150 57 -136 153 -246 270 -307 118 -61 178 -111 273 -226 24
-29 134 -195 134 -203 0 -8 101 -177 159 -265 147 -223 359 -354 545 -337 49
4 86 19 198 76 153 78 181 88 288 96 187 14 279 58 282 137 1 39 -35 126 -83
196 -126 186 -179 297 -179 374 0 52 28 111 78 163 114 120 212 257 212 296 0
33 -27 49 -78 44 -79 -8 -124 -21 -390 -114 -210 -74 -240 -81 -447 -100 -92
-9 -331 -7 -390 3 -359 62 -634 210 -660 356 -6 38 73 142 124 161 48 19 83
-5 167 -117 59 -78 79 -89 127 -69 126 52 85 221 -78 324 -76 48 -164 65 -251
50z m1395 -973 c26 -31 -26 -81 -151 -144 -40 -21 -83 -44 -94 -52 -59 -37
-100 70 -45 121 73 68 257 115 290 75z"/>
</g>
</svg>
